<?xml version="1.0" encoding="UTF-8"?>
<!DOCTYPE svg PUBLIC "-//W3C//DTD SVG 1.1//EN" "http://www.w3.org/Graphics/SVG/1.1/DTD/svg11.dtd">
<!-- Creator: CorelDRAW -->
<svg xmlns="http://www.w3.org/2000/svg" xml:space="preserve" width="117.594mm" height="114.699mm" style="shape-rendering:geometricPrecision; text-rendering:geometricPrecision; image-rendering:optimizeQuality; fill-rule:evenodd; clip-rule:evenodd"
viewBox="0 0 164.819 160.761"
 xmlns:xlink="http://www.w3.org/1999/xlink">
 <defs>
  <style type="text/css">
   <![CDATA[
    .fil0 {fill:white}
   ]]>
  </style>
 </defs>
 <g id="Layer_x0020_1">
  <metadata id="CorelCorpID_0Corel-Layer"/>
  <g id="Github-2" data-name="Github">
   <path id="_402429912" class="fil0" d="M82.3923 0c-45.5016,0.0100915 -82.3923,36.9208 -82.3923,82.4252 0,35.4618 22.712,66.9687 56.3422,78.1889 4.11607,0.758824 5.63371,-1.78788 5.63371,-3.96666 0,-1.96602 -0.0747051,-8.45639 -0.114931,-15.3434 -22.9259,4.98422 -27.7663,-9.72105 -27.7663,-9.72105 -3.74815,-9.52567 -9.152,-12.0724 -9.152,-12.0724 -7.47331,-5.11639 0.574935,-5.0072 0.574935,-5.0072 8.27236,0.574935 12.6472,8.49661 12.6472,8.49661 7.35263,12.5954 19.2812,8.95648 23.9837,6.8468 0.741584,-5.32901 2.87439,-8.96222 5.23132,-11.0203 -18.3302,-2.06974 -37.5769,-9.12916 -37.5769,-40.7185 0.000840958,-0.145626 -0.00308351,-0.301343 -0.00308351,-0.449352 0,-8.03283 3.03712,-15.7815 8.49241,-21.6729 -0.856515,-2.07534 -3.67919,-10.4569 0.79905,-21.8107 0,0 6.89852,-2.21326 22.6673,8.45064 6.72304,-1.82712 13.6717,-2.77208 20.6395,-2.77208 6.96789,0 13.9166,0.944956 20.6363,2.77754 15.7286,-10.6639 22.6443,-8.45064 22.6443,-8.45064 4.48399,11.3538 1.66145,19.7355 0.810543,21.8107 5.44983,5.87675 8.48484,13.6099 8.48484,21.6308 0,0.159361 -0.00392447,0.330356 -0.00392447,0.485793 0,31.6583 -19.2812,38.62 -37.6312,40.6666 2.95484,2.55819 5.58774,7.57114 5.58774,15.2628 0,11.0261 -0.0919447,19.9021 -0.0919447,22.6155 0,2.19602 1.48317,4.76571 5.66245,3.95516 33.6302,-11.2341 56.322,-42.7209 56.322,-78.1827 0,-45.5144 -36.9107,-82.4252 -82.4253,-82.4252 0,0 0,0 0,0l-0.00154176 0z"/>
   <path id="_402429216" class="fil0" d="M31.1941 118.32c-0.18403,0.408145 -0.827783,0.534569 -1.41421,0.252988 -0.586428,-0.281581 -0.931361,-0.827783 -0.741584,-1.24167 0.189776,-0.413891 0.822036,-0.540315 1.41996,-0.258735 0.597921,0.281581 0.942854,0.833529 0.735838,1.24167l0 0.00574654zm-1.01756 -0.753078z"/>
   <path id="_402431688" class="fil0" d="M34.5341 122.051c-0.390905,0.362172 -1.14973,0.195523 -1.68444,-0.379412 -0.534709,-0.574935 -0.638147,-1.34525 -0.241495,-1.72466 0.396652,-0.379412 1.14973,-0.195523 1.69018,0.379412 0.540455,0.574935 0.643893,1.34525 0.235748,1.72466zm-0.787557 -0.856515z"/>
   <path id="_402431088" class="fil0" d="M37.7821 126.8c-0.505836,0.350679 -1.33376,0 -1.83959,-0.712852 -0.505836,-0.712852 -0.505836,-1.60959 0,-1.96027 0.505836,-0.350679 1.32227,-0.0344793 1.84534,0.689866 0.523076,0.724345 0.500089,1.62109 0,1.98326l-0.00574654 0zm0 0z"/>
   <path id="_402431856" class="fil0" d="M42.2316 131.382c-0.454117,0.500089 -1.41421,0.362172 -2.11557,-0.3162 -0.701359,-0.678372 -0.919867,-1.60959 -0.471357,-2.10408 0.448511,-0.494483 1.4257,-0.356426 2.13281,0.3162 0.707105,0.672626 0.931361,1.60959 0.454117,2.10408zm0 0z"/>
   <path id="_402399504" class="fil0" d="M48.3713 134.049c-0.201269,0.643893 -1.14973,0.937107 -2.0581,0.661133 -0.908374,-0.275974 -1.54063,-1.0348 -1.35674,-1.69018 0.183889,-0.655386 1.14973,-0.954347 2.06385,-0.661133 0.914121,0.293214 1.54063,1.02905 1.34525,1.69018l0.00574654 0zm0 0z"/>
   <path id="_402400200" class="fil0" d="M55.1203 134.538c0,0.678372 -0.770317,1.24167 -1.72466,1.25891 -0.954347,0.0172396 -1.78213,-0.528822 -1.79362,-1.20145 -0.0114931,-0.672626 0.770317,-1.24167 1.75914,-1.25891 0.988826,-0.0172396 1.78213,0.528822 1.78213,1.20145l-0.0229862 0zm0 0z"/>
   <path id="_402399672" class="fil0" d="M61.3979 133.474c0.114931,0.661133 -0.574935,1.34525 -1.53489,1.52339 -0.959953,0.178143 -1.84534,-0.235748 -1.96602,-0.890995 -0.120677,-0.655246 0.574935,-1.36249 1.52914,-1.54063 0.954207,-0.178143 1.84534,0.230002 1.97177,0.902488l0 0.00574654zm0 0z"/>
  </g>
 </g>
</svg>
