<?xml version="1.0" encoding="UTF-8"?>
<!DOCTYPE svg PUBLIC "-//W3C//DTD SVG 1.1//EN" "http://www.w3.org/Graphics/SVG/1.1/DTD/svg11.dtd">
<!-- Creator: CorelDRAW -->
<svg xmlns="http://www.w3.org/2000/svg" xml:space="preserve" width="183.75mm" height="183.75mm" style="shape-rendering:geometricPrecision; text-rendering:geometricPrecision; image-rendering:optimizeQuality; fill-rule:evenodd; clip-rule:evenodd"
viewBox="0 0 71.3202 71.3202"
 xmlns:xlink="http://www.w3.org/1999/xlink">
 <defs>
  <style type="text/css">
   <![CDATA[
    .fil0 {fill:white}
   ]]>
  </style>
 </defs>
 <g id="Layer_x0020_1">
  <metadata id="CorelCorpID_0Corel-Layer"/>
  <path class="fil0" d="M25.553 51.1315l0 -23.8515 -7.93181 0 0 23.854 7.92925 0 0.0025617 -0.0025617zm-3.96591 -27.1118c2.76365,0 4.48807,-1.83395 4.48807,-4.12384 -0.0509624,-2.33829 -1.72441,-4.11875 -4.43206,-4.11875 -2.71781,0 -4.48807,1.78302 -4.48807,4.11875 0,2.29245 1.72189,4.1264 4.38366,4.1264l0.0484007 -0.0025617zm32.5577 27.1118l0 -13.6757c0,-7.32814 -3.91242,-10.7388 -9.12642,-10.7388 -4.21299,0 -6.09786,2.31791 -7.14731,3.94044l0 -3.38261 -7.92929 0c0.104448,2.24149 0,23.8566 0,23.8566l7.92929 0 0 -13.3216c0,-0.713202 0.0509624,-1.4264 0.259819,-1.93075 0.570561,-1.4264 1.87726,-2.90121 4.06527,-2.90121 2.87062,0 4.02451,2.18544 4.02451,5.39231l0 12.7638 7.92665 3.88137e-005 -0.00252289 -0.0025617zm-18.4847 -51.1315c19.6946,0 35.6601,15.963 35.6601,35.6601 0,19.6946 -15.9655,35.6601 -35.6601,35.6601 -19.6971,0 -35.6601,-15.9655 -35.6601,-35.6601 0,-19.6971 15.963,-35.6601 35.6601,-35.6601z"/>
 </g>
</svg>
