<?xml version="1.0" encoding="UTF-8"?>
<!DOCTYPE svg PUBLIC "-//W3C//DTD SVG 1.1//EN" "http://www.w3.org/Graphics/SVG/1.1/DTD/svg11.dtd">
<!-- Creator: CorelDRAW -->
<svg xmlns="http://www.w3.org/2000/svg" xml:space="preserve" width="66.9132mm" height="66.9132mm" style="shape-rendering:geometricPrecision; text-rendering:geometricPrecision; image-rendering:optimizeQuality; fill-rule:evenodd; clip-rule:evenodd"
viewBox="0 0 66.8375 66.8375"
 xmlns:xlink="http://www.w3.org/1999/xlink">
 <defs>
  <style type="text/css">
   <![CDATA[
    .fil0 {fill:white;fill-rule:nonzero}
   ]]>
  </style>
 </defs>
 <g id="Layer_x0020_1">
  <metadata id="CorelCorpID_0Corel-Layer"/>
  <g id="_404281480">
   <path id="_404282416" class="fil0" d="M34.1636 38.6937c-0.21166,0.190884 -0.478258,0.285876 -0.744856,0.285876 -0.266598,0 -0.533196,-0.0950923 -0.744856,-0.285876l-3.82826 -3.4436 -11.2147 9.46268 31.5747 0 -11.2138 -9.46348 -3.82826 3.4444z"/>
   <polygon id="_404281696" class="fil0" points="49.2517,22.1231 17.5857,22.1231 33.4187,36.367 "/>
   <polygon id="_404282896" class="fil0" points="15.6474,23.3782 15.6474,43.4666 27.1731,33.7455 "/>
   <polygon id="_404283088" class="fil0" points="51.19,43.4666 51.19,23.3782 39.6643,33.7455 "/>
   <path id="_404281240" class="fil0" d="M33.4187 0c-18.4568,0 -33.4187,14.962 -33.4187,33.4187 0,18.4568 14.962,33.4187 33.4187,33.4187 18.4568,0 33.4187,-14.962 33.4187,-33.4187 -9.98868e-005,-18.4568 -14.9621,-33.4187 -33.4187,-33.4187zm19.9969 43.7495c0,1.75931 -1.43178,3.19109 -3.19109,3.19109l-33.6118 0c-1.75931,0 -3.19039,-1.43178 -3.19039,-3.19109l0 -20.6624c0,-1.75931 1.43108,-3.19039 3.19039,-3.19039l33.6118 0c1.75931,0 3.19109,1.43108 3.19109,3.19039l0 20.6624z"/>
  </g>
 </g>
</svg>
