<?xml version="1.0" encoding="UTF-8"?>
<!DOCTYPE svg PUBLIC "-//W3C//DTD SVG 1.1//EN" "http://www.w3.org/Graphics/SVG/1.1/DTD/svg11.dtd">
<!-- Creator: CorelDRAW -->
<svg xmlns="http://www.w3.org/2000/svg" xml:space="preserve"  style="shape-rendering:geometricPrecision; text-rendering:geometricPrecision; image-rendering:optimizeQuality; fill-rule:evenodd; clip-rule:evenodd"

 xmlns:xlink="http://www.w3.org/1999/xlink">
 <defs>
  <style type="text/css">
   <![CDATA[
    .str0 {stroke:#4ADE80;stroke-width:0.547064}
    .fil1 {fill:none;fill-rule:nonzero}
    .fil0 {fill:#4ADE80;fill-rule:nonzero}
   ]]>
  </style>
 </defs>
 <g id="Layer_x0020_1">
  <metadata id="CorelCorpID_0Corel-Layer"/>
  <path class="fil0" d="M3.00887 3.40552l7.76838 0.041056c-0.063852,0.237031 -0.139063,0.467278 -0.225672,0.690663 -0.0866091,0.223385 -0.198302,0.426261 -0.335077,0.60859 -0.355586,0 -0.711211,-0.00911063 -1.0668,-0.0273319 -0.355586,-0.01826 -0.711172,-0.0273707 -1.06676,-0.0273707 -0.0911838,0.200589 -0.17097,0.401178 -0.239358,0.601767 -0.0683879,0.200589 -0.15271,0.401217 -0.253004,0.601806 -0.182368,0.373807 -0.344227,0.754477 -0.485538,1.14197 -0.141312,0.387531 -0.29406,0.768201 -0.458168,1.14201l1.58649 0.0136853c-0.0547026,0.23707 -0.132201,0.469566 -0.232496,0.697525 -0.100294,0.227921 -0.205164,0.451306 -0.314569,0.670155 -0.273513,0 -0.547064,-0.011398 -0.820577,-0.0341939 -0.273552,-0.022796 -0.547103,-0.0341939 -0.820616,-0.0341939 -0.218849,0.464991 -0.428549,0.927734 -0.629138,1.38819 -0.200589,0.460455 -0.396603,0.927734 -0.588082,1.40184 -0.01826,0.0455919 -0.0387686,0.0957585 -0.0615646,0.150461 -0.022796,0.0547026 -0.0569899,0.0957198 -0.102582,0.12309 -0.0364425,0.0182213 -0.125339,0.0387686 -0.266689,0.0615646 -0.141312,0.0227572 -0.296309,0.0433046 -0.464991,0.0615258 -0.168682,0.0182213 -0.330541,0.0364813 -0.485538,0.0547026 -0.154997,0.0182213 -0.259827,0.0319066 -0.314569,0.0410172 0.182368,-0.565286 0.403465,-1.11692 0.663331,-1.65488 0.259866,-0.537915 0.499185,-1.08044 0.718034,-1.62751 -0.23707,-0.0273707 -0.474141,-0.0433046 -0.711211,-0.0478793 -0.237031,-0.00453593 -0.474102,-0.00682328 -0.711172,-0.00682328 0.0820732,-0.218849 0.173257,-0.437659 0.273552,-0.656469 0.100294,-0.218849 0.19144,-0.437659 0.273513,-0.656508 0.154997,0 0.307745,0.0045747 0.458168,0.0136853 0.150461,0.00911063 0.303171,0.0136853 0.458168,0.0136853 0.0364813,0 0.11398,-0.00228735 0.232496,-0.00686205 0.118555,-0.00453593 0.191478,-0.011398 0.218849,-0.0205086 0.0911838,-0.0364425 0.168682,-0.125378 0.232496,-0.266689 0.0638132,-0.141312 0.11398,-0.253004 0.150461,-0.335077 0.2097,-0.474141 0.423974,-0.943706 0.642784,-1.4087 0.218849,-0.464991 0.410289,-0.943706 0.574435,-1.43607 -0.638248,-0.0273319 -1.2765,-0.0433046 -1.91474,-0.0478405 -0.638248,-0.0045747 -1.2765,-0.011398 -1.91474,-0.0205086 -0.0638132,0 -0.139024,0.00911063 -0.225672,0.0273319 -0.0866091,0.0182213 -0.170931,0.0433046 -0.253004,0.0752112 -0.0820732,0.0319454 -0.150461,0.0752499 -0.205164,0.129952 -0.0547026,0.0547026 -0.0820344,0.12309 -0.0820344,0.205125 0,0.145886 0.0410172,0.282662 0.12309,0.410327 0.0820344,0.127626 0.18008,0.250717 0.294021,0.369271 0.11398,0.118516 0.230247,0.23707 0.348763,0.355586 0.118555,0.118516 0.2097,0.23707 0.273552,0.355586 -0.23707,0.0820732 -0.474141,0.150461 -0.711211,0.205164 -0.237031,0.0547026 -0.474102,0.109405 -0.711172,0.164108 -0.136776,-0.145886 -0.2758,-0.298596 -0.417151,-0.458168 -0.141312,-0.159572 -0.271264,-0.328254 -0.38978,-0.506047 -0.118516,-0.177793 -0.216562,-0.362409 -0.29406,-0.553888 -0.0774985,-0.191478 -0.116228,-0.392067 -0.116228,-0.601767 0,-0.154997 0.0364813,-0.289485 0.109405,-0.403465 0.0729238,-0.11398 0.168682,-0.221098 0.287198,-0.321431 0.291773,-0.273513 0.635961,-0.451306 1.0326,-0.533379 0.396603,-0.0820344 0.786422,-0.12309 1.16934,-0.12309z"/>
  <path id="1" class="fil1 str0" d="M3.00887 3.40552l7.76838 0.041056c-0.063852,0.237031 -0.139063,0.467278 -0.225672,0.690663 -0.0866091,0.223385 -0.198302,0.426261 -0.335077,0.60859 -0.355586,0 -0.711211,-0.00911063 -1.0668,-0.0273319 -0.355586,-0.01826 -0.711172,-0.0273707 -1.06676,-0.0273707 -0.0911838,0.200589 -0.17097,0.401178 -0.239358,0.601767 -0.0683879,0.200589 -0.15271,0.401217 -0.253004,0.601806 -0.182368,0.373807 -0.344227,0.754477 -0.485538,1.14197 -0.141312,0.387531 -0.29406,0.768201 -0.458168,1.14201l1.58649 0.0136853c-0.0547026,0.23707 -0.132201,0.469566 -0.232496,0.697525 -0.100294,0.227921 -0.205164,0.451306 -0.314569,0.670155 -0.273513,0 -0.547064,-0.011398 -0.820577,-0.0341939 -0.273552,-0.022796 -0.547103,-0.0341939 -0.820616,-0.0341939 -0.218849,0.464991 -0.428549,0.927734 -0.629138,1.38819 -0.200589,0.460455 -0.396603,0.927734 -0.588082,1.40184 -0.01826,0.0455919 -0.0387686,0.0957585 -0.0615646,0.150461 -0.022796,0.0547026 -0.0569899,0.0957198 -0.102582,0.12309 -0.0364425,0.0182213 -0.125339,0.0387686 -0.266689,0.0615646 -0.141312,0.0227572 -0.296309,0.0433046 -0.464991,0.0615258 -0.168682,0.0182213 -0.330541,0.0364813 -0.485538,0.0547026 -0.154997,0.0182213 -0.259827,0.0319066 -0.314569,0.0410172 0.182368,-0.565286 0.403465,-1.11692 0.663331,-1.65488 0.259866,-0.537915 0.499185,-1.08044 0.718034,-1.62751 -0.23707,-0.0273707 -0.474141,-0.0433046 -0.711211,-0.0478793 -0.237031,-0.00453593 -0.474102,-0.00682328 -0.711172,-0.00682328 0.0820732,-0.218849 0.173257,-0.437659 0.273552,-0.656469 0.100294,-0.218849 0.19144,-0.437659 0.273513,-0.656508 0.154997,0 0.307745,0.0045747 0.458168,0.0136853 0.150461,0.00911063 0.303171,0.0136853 0.458168,0.0136853 0.0364813,0 0.11398,-0.00228735 0.232496,-0.00686205 0.118555,-0.00453593 0.191478,-0.011398 0.218849,-0.0205086 0.0911838,-0.0364425 0.168682,-0.125378 0.232496,-0.266689 0.0638132,-0.141312 0.11398,-0.253004 0.150461,-0.335077 0.2097,-0.474141 0.423974,-0.943706 0.642784,-1.4087 0.218849,-0.464991 0.410289,-0.943706 0.574435,-1.43607 -0.638248,-0.0273319 -1.2765,-0.0433046 -1.91474,-0.0478405 -0.638248,-0.0045747 -1.2765,-0.011398 -1.91474,-0.0205086 -0.0638132,0 -0.139024,0.00911063 -0.225672,0.0273319 -0.0866091,0.0182213 -0.170931,0.0433046 -0.253004,0.0752112 -0.0820732,0.0319454 -0.150461,0.0752499 -0.205164,0.129952 -0.0547026,0.0547026 -0.0820344,0.12309 -0.0820344,0.205125 0,0.145886 0.0410172,0.282662 0.12309,0.410327 0.0820344,0.127626 0.18008,0.250717 0.294021,0.369271 0.11398,0.118516 0.230247,0.23707 0.348763,0.355586 0.118555,0.118516 0.2097,0.23707 0.273552,0.355586 -0.23707,0.0820732 -0.474141,0.150461 -0.711211,0.205164 -0.237031,0.0547026 -0.474102,0.109405 -0.711172,0.164108 -0.136776,-0.145886 -0.2758,-0.298596 -0.417151,-0.458168 -0.141312,-0.159572 -0.271264,-0.328254 -0.38978,-0.506047 -0.118516,-0.177793 -0.216562,-0.362409 -0.29406,-0.553888 -0.0774985,-0.191478 -0.116228,-0.392067 -0.116228,-0.601767 0,-0.154997 0.0364813,-0.289485 0.109405,-0.403465 0.0729238,-0.11398 0.168682,-0.221098 0.287198,-0.321431 0.291773,-0.273513 0.635961,-0.451306 1.0326,-0.533379 0.396603,-0.0820344 0.786422,-0.12309 1.16934,-0.12309z"/>
 </g>
</svg>
