<?xml version="1.0" encoding="UTF-8"?>
<!DOCTYPE svg PUBLIC "-//W3C//DTD SVG 1.1//EN" "http://www.w3.org/Graphics/SVG/1.1/DTD/svg11.dtd">
<!-- Creator: CorelDRAW -->
<svg xmlns="http://www.w3.org/2000/svg" xml:space="preserve"  style="shape-rendering:geometricPrecision; text-rendering:geometricPrecision; image-rendering:optimizeQuality; fill-rule:evenodd; clip-rule:evenodd"
viewBox="0 0 9.55215 15.1274"
 xmlns:xlink="http://www.w3.org/1999/xlink">
 <defs>
  <style type="text/css">
   <![CDATA[
    .str0 {stroke:#4ADE80;stroke-width:0.369333}
    .fil1 {fill:none;fill-rule:nonzero}
    .fil0 {fill:#4ADE80;fill-rule:nonzero}
   ]]>
  </style>
 </defs>
 <g id="Layer_x0020_1">
  <metadata id="CorelCorpID_0Corel-Layer"/>
  <path class="fil0" d="M0.471935 10.9449l0 -0.318032c0.272908,-0.0574781 0.48223,-0.11698 0.632015,-0.184684 0.147726,-0.0656793 0.221607,-0.127206 0.221607,-0.182625l0 -6.19675c0,-0.049242 -0.0697624,-0.108779 -0.211346,-0.180566 -0.139525,-0.0718215 -0.35293,-0.135442 -0.642275,-0.192885l0 -0.318067 5.05591 0 0.199027 0.162104c-0.00408314,0.104661 -0.0143434,0.223666 -0.0307457,0.357048 -0.0164373,0.135407 -0.0348987,0.270849 -0.0574781,0.410374 -0.0205204,0.137466 -0.045124,0.26879 -0.0718215,0.393971 -0.0246036,0.123123 -0.0513011,0.223666 -0.0738456,0.29957l-0.34267 0c-0.0123192,-0.369333 -0.0595022,-0.63198 -0.141584,-0.787942 -0.0820817,-0.155927 -0.199027,-0.233891 -0.35293,-0.233891l-2.18734 0 0 2.55256 2.23659 0 0.186708 0.180566c-0.0369228,0.0595022 -0.0779636,0.125182 -0.127206,0.192885 -0.047183,0.0677034 -0.0984841,0.133383 -0.149785,0.199027 -0.0513011,0.0636203 -0.102602,0.123123 -0.153903,0.176483 -0.049242,0.0553842 -0.094366,0.096425 -0.135407,0.129265 -0.0595022,-0.0595022 -0.123123,-0.110803 -0.190826,-0.149785 -0.0697624,-0.0410408 -0.147761,-0.0738805 -0.238044,-0.102602 -0.0902829,-0.0287216 -0.196968,-0.047183 -0.318032,-0.0595022 -0.123123,-0.0123192 -0.26879,-0.0184614 -0.437071,-0.0184614l-0.673021 0 0 3.1866c0,0.0246385 0.0164373,0.049242 0.0513011,0.0779636 0.0348987,0.0287216 0.0923419,0.0574781 0.174424,0.0882587 0.0820817,0.0287216 0.188767,0.0615264 0.32215,0.094366 0.131324,0.0348987 0.295452,0.0697624 0.492455,0.10672l0 0.318032 -3.03685 0z"/>
  <path id="1" class="fil1 str0" d="M0.471935 10.9449l0 -0.318032c0.272908,-0.0574781 0.48223,-0.11698 0.632015,-0.184684 0.147726,-0.0656793 0.221607,-0.127206 0.221607,-0.182625l0 -6.19675c0,-0.049242 -0.0697624,-0.108779 -0.211346,-0.180566 -0.139525,-0.0718215 -0.35293,-0.135442 -0.642275,-0.192885l0 -0.318067 5.05591 0 0.199027 0.162104c-0.00408314,0.104661 -0.0143434,0.223666 -0.0307457,0.357048 -0.0164373,0.135407 -0.0348987,0.270849 -0.0574781,0.410374 -0.0205204,0.137466 -0.045124,0.26879 -0.0718215,0.393971 -0.0246036,0.123123 -0.0513011,0.223666 -0.0738456,0.29957l-0.34267 0c-0.0123192,-0.369333 -0.0595022,-0.63198 -0.141584,-0.787942 -0.0820817,-0.155927 -0.199027,-0.233891 -0.35293,-0.233891l-2.18734 0 0 2.55256 2.23659 0 0.186708 0.180566c-0.0369228,0.0595022 -0.0779636,0.125182 -0.127206,0.192885 -0.047183,0.0677034 -0.0984841,0.133383 -0.149785,0.199027 -0.0513011,0.0636203 -0.102602,0.123123 -0.153903,0.176483 -0.049242,0.0553842 -0.094366,0.096425 -0.135407,0.129265 -0.0595022,-0.0595022 -0.123123,-0.110803 -0.190826,-0.149785 -0.0697624,-0.0410408 -0.147761,-0.0738805 -0.238044,-0.102602 -0.0902829,-0.0287216 -0.196968,-0.047183 -0.318032,-0.0595022 -0.123123,-0.0123192 -0.26879,-0.0184614 -0.437071,-0.0184614l-0.673021 0 0 3.1866c0,0.0246385 0.0164373,0.049242 0.0513011,0.0779636 0.0348987,0.0287216 0.0923419,0.0574781 0.174424,0.0882587 0.0820817,0.0287216 0.188767,0.0615264 0.32215,0.094366 0.131324,0.0348987 0.295452,0.0697624 0.492455,0.10672l0 0.318032 -3.03685 0z"/>
 </g>
</svg>
