<?xml version="1.0" encoding="UTF-8"?>
<!DOCTYPE svg PUBLIC "-//W3C//DTD SVG 1.1//EN" "http://www.w3.org/Graphics/SVG/1.1/DTD/svg11.dtd">
<!-- Creator: CorelDRAW -->
<svg xmlns="http://www.w3.org/2000/svg" xml:space="preserve" width="66.9396mm" height="43.2031mm" style="shape-rendering:geometricPrecision; text-rendering:geometricPrecision; image-rendering:optimizeQuality; fill-rule:evenodd; clip-rule:evenodd"
viewBox="0 0 66.9396 43.2031"
 xmlns:xlink="http://www.w3.org/1999/xlink">
 <defs>
  <style type="text/css">
   <![CDATA[
    .fil0 {fill:white}
   ]]>
  </style>
 </defs>
 <g id="Layer_x0020_1">
  <metadata id="CorelCorpID_0Corel-Layer"/>
  <path class="fil0" d="M13.7583 17.4879c13.0096,0 26.0192,0 39.423,0 0,2.7066 0,5.4133 0,8.202 -0.4675,0.4675 -1.1377,0.298 -1.7712,0.2982 -0.4909,0.0011 -0.4909,0.0011 -0.9917,0.0023 -0.3659,-0.0005 -0.7319,-0.0011 -1.0979,-0.0016 -0.3828,0.0003 -0.7656,0.0008 -1.1484,0.0014 -1.0424,0.0012 -2.0849,0.0007 -3.1273,-0.0001 -1.0886,-0.0007 -2.1771,-0.0001 -3.2657,0.0003 -1.8283,0.0005 -3.6567,-0.0001 -5.4851,-0.0014 -2.1168,-0.0014 -4.2337,-0.001 -6.3506,0.0005 -1.8142,0.0012 -3.6284,0.0014 -5.4426,0.0007 -1.085,-0.0004 -2.17,-0.0005 -3.255,0.0004 -1.0198,0.0007 -2.0396,0.0002 -3.0594,-0.0013 -0.3754,-0.0004 -0.7507,-0.0003 -1.1261,0.0003 -0.5102,0.0007 -1.0205,-0.0003 -1.5308,-0.0015 -0.2862,-0.0001 -0.5724,-0.0002 -0.8673,-0.0003 -0.6393,-0.0333 -0.6393,-0.0333 -0.9039,-0.2979 0,-2.7066 0,-5.4133 0,-8.202z"/>
  <path class="fil0" d="M13.7583 29.1295c13.0096,0 26.0192,0 39.423,0 0,2.7067 0,5.4134 0,8.2021 -13.0096,0 -26.0192,0 -39.423,0 0,-2.7067 0,-5.4134 0,-8.2021z"/>
  <path class="fil0" d="M13.7583 5.8462c13.0096,0 26.0192,0 39.423,0 0,2.7067 0,5.4134 0,8.2021 -13.0096,0 -26.0192,0 -39.423,0 0,-2.7067 0,-5.4134 0,-8.2021z"/>
  <path class="fil0" d="M54.5042 0.0254c2.6183,-0.131 5.1777,0.2066 7.244,1.9378 1.6123,1.6668 1.8034,3.5216 1.8014,5.7516 0.0002,0.2004 0.0004,0.4008 0.0005,0.6072 -0.0106,1.1441 -0.0944,2.2187 -0.3147,3.345 -0.2562,1.3217 -0.3238,2.5937 -0.3307,3.9357 -0.0024,0.189 -0.0048,0.3779 -0.0072,0.5726 0.0065,1.1508 0.1433,2.1065 0.6025,3.1646 1.0363,0.6401 2.2488,0.6727 3.4396,0.7938 0,0.9604 0,1.9209 0,2.9104 -0.3656,0.06 -0.7313,0.1201 -1.108,0.1819 -1.2074,0.27 -1.8407,0.655 -2.5962,1.6702 -0.5728,2.076 -0.4571,4.6064 0,6.6973 0.5415,2.621 0.7805,5.9146 -0.4268,8.3715 -1.0393,1.5341 -2.3982,2.563 -4.1806,3.0758 -1.3675,0.2231 -2.7438,0.1692 -4.1238,0.1116 0,-0.9604 0,-1.9208 0,-2.9104 0.4038,-0.0218 0.8076,-0.0436 1.2237,-0.0661 1.2684,-0.1346 2.0599,-0.3534 3.0096,-1.2568 1.1875,-1.9551 0.9159,-4.147 0.5292,-6.3004 -0.2614,-1.591 -0.3414,-3.1534 -0.3638,-4.7625 -0.0068,-0.2337 -0.0137,-0.4675 -0.0207,-0.7083 -0.0048,-1.5883 0.2791,-2.7787 1.1782,-4.1038 0.7483,-0.7295 1.3394,-1.1686 2.3813,-1.3229 -0.2347,-0.1473 -0.4693,-0.2947 -0.7111,-0.4465 -1.4256,-0.9605 -2.2975,-1.8288 -2.7285,-3.5223 -0.074,-0.8501 -0.0751,-1.6937 -0.0662,-2.5466 0.0011,-0.2353 0.0021,-0.4706 0.0031,-0.713 0.0202,-1.5374 0.1748,-2.9899 0.4713,-4.5001 0.3345,-1.9556 0.3511,-3.7394 -0.6728,-5.4694 -1.136,-1.3136 -2.5921,-1.3502 -4.2333,-1.5875 0,-0.9605 0,-1.9209 0,-2.9104z"/>
  <path class="fil0" d="M10.9306 0.0088c0.4241,0.0036 0.4241,0.0036 0.8568,0.0073 0.2138,0.003 0.4277,0.0061 0.648,0.0093 0,0.9604 0,1.9208 0,2.9104 -0.5402,0.0327 -0.5402,0.0327 -1.0914,0.0661 -1.5537,0.1781 -2.4591,0.7365 -3.4447,1.9627 -0.5871,1.0542 -0.6162,1.6996 -0.5902,2.899 0.0034,0.1868 0.0068,0.3735 0.0104,0.566 0.0318,1.0958 0.1476,2.1423 0.3534,3.2209 0.4529,2.3991 0.9019,5.6648 -0.4558,7.8197 -0.7871,0.9291 -1.7075,1.5766 -2.7192,2.251 0.2292,0.0928 0.4584,0.1855 0.6946,0.2811 1.297,0.7446 2.2672,1.7251 2.745,3.1585 0.0608,0.8311 0.0502,1.6638 0.0496,2.497 0.0002,0.2393 0.0004,0.4785 0.0005,0.7251 -0.0121,1.5433 -0.1614,2.9874 -0.4573,4.5035 -0.3852,2.3404 -0.3579,4.2797 0.9364,6.2973 0.7199,0.7199 1.2826,0.6896 2.282,0.8268 0.4717,0.0665 0.4717,0.0665 0.9529,0.1344 0.2422,0.032 0.4843,0.0641 0.7338,0.0971 0,0.9605 0,1.9209 0,2.9104 -4.833,0.1207 -4.833,0.1207 -6.7965,-1.4552 -1.6797,-1.6081 -2.227,-3.1035 -2.2954,-5.4252 -0.0109,-1.9948 0.2113,-3.9209 0.5043,-5.894 0.1291,-1.0497 0.1901,-2.077 0.2036,-3.1336 0.0045,-0.3172 0.0089,-0.6344 0.0135,-0.9612 -0.1056,-0.9426 -0.3196,-1.4303 -0.8899,-2.1808 -1.0373,-0.6454 -1.9669,-0.9145 -3.175,-1.0583 0,-0.9604 0,-1.9209 0,-2.9104 0.3165,-0.0164 0.633,-0.0328 0.9591,-0.0496 1.2761,-0.1564 1.855,-0.6262 2.7451,-1.5379 0.3473,-1.042 0.315,-2.0391 0.3142,-3.1254 0.0001,-0.2257 0.0003,-0.4514 0.0005,-0.6839 -0.0136,-1.6425 -0.1962,-3.21 -0.4574,-4.832 -0.3463,-2.5096 -0.4533,-5.0207 0.9364,-7.2337 1.7388,-1.983 3.8502,-2.6908 6.4327,-2.6624z"/>
 </g>
</svg>
