<?xml version="1.0" encoding="UTF-8"?>
<!DOCTYPE svg PUBLIC "-//W3C//DTD SVG 1.1//EN" "http://www.w3.org/Graphics/SVG/1.1/DTD/svg11.dtd">
<!-- Creator: CorelDRAW -->
<svg xmlns="http://www.w3.org/2000/svg" xml:space="preserve" width="87.0719mm" height="97.3831mm" style="shape-rendering:geometricPrecision; text-rendering:geometricPrecision; image-rendering:optimizeQuality; fill-rule:evenodd; clip-rule:evenodd"
viewBox="0 0 86.9466 97.2429"
 xmlns:xlink="http://www.w3.org/1999/xlink">
 <defs>
  <style type="text/css">
   <![CDATA[
    .str0 {stroke:#22C55E;stroke-width:1.40907}
    .fil0 {fill:#2B2B2B}
    .fil1 {fill:#F7F7F7}
    .fil4 {fill:#F9F9F9}
    .fil2 {fill:#FBFBFB}
    .fil3 {fill:#FCFCFC}
   ]]>
  </style>
 </defs>
 <g id="Layer_x0020_1">
  <metadata id="CorelCorpID_0Corel-Layer"/>
  <g id="_404059912">
   <path id="_404086720" class="fil0 str0" d="M43.3378 0.72825c0.29827,-0.00748921 0.59664,-0.0149784 0.903997,-0.0226673 2.55552,0.307657 4.784,1.74908 6.98903,2.99498 0.314846,0.176546 0.629792,0.352991 0.944738,0.529437 2.55202,1.43293 5.08178,2.90352 7.60574,4.38508 1.64792,0.967406 3.30154,1.92473 4.95686,2.87945 0.282892,0.163165 0.565785,0.32643 0.857364,0.494587 1.50972,0.870146 3.02154,1.7366 4.53606,2.59835 14.4183,8.20537 14.4183,8.20537 15.8088,12.1317 0.341508,2.36459 0.302264,4.78141 0.29837,7.16547 0.000399424,0.359282 0.000898705,0.718664 0.00139799,1.07805 0.00119827,0.965109 0.000798849,1.93012 -9.98561e-005,2.89523 -0.000599136,1.01673 0,2.03347 0.000399424,3.0502 0.00049928,1.70644 -9.98561e-005,3.41278 -0.00139799,5.11922 -0.00139799,1.96437 -0.000998561,3.92874 0.00049928,5.89311 0.00119827,1.69566 0.00139799,3.39141 0.000698993,5.08717 -0.000399424,1.00875 -0.00049928,2.01749 0.000399424,3.02624 0.000698993,0.949032 0.000199712,1.89796 -0.00129813,2.847 -0.00049928,0.508267 0.000199712,1.01653 0.00109842,1.5248 -0.0154777,6.45629 -0.0154777,6.45629 -1.62106,8.8131 -0.0913683,0.136403 -0.182836,0.272707 -0.277001,0.413105 -1.2494,1.65931 -3.03453,2.55092 -4.80887,3.54998 -0.343305,0.196716 -0.686311,0.393732 -1.02912,0.591148 -0.701689,0.403219 -1.40448,0.80454 -2.10816,1.20416 -1.23512,0.701689 -2.46465,1.41276 -3.69428,2.12394 -0.84648,0.489395 -1.69396,0.977291 -2.54144,1.46489 -1.63005,0.939246 -3.25391,1.88868 -4.87747,2.83911 -2.55821,1.49634 -5.133,2.96133 -7.71548,4.41514 -1.22454,0.689606 -2.44597,1.3843 -3.66512,2.0833 -0.467326,0.267115 -0.935452,0.532632 -1.40448,0.796452 -1.0412,0.587353 -2.06123,1.18309 -3.0516,1.85313 -2.50898,1.65811 -4.91312,2.30098 -7.92757,1.84065 -2.58348,-0.646269 -4.86139,-2.23348 -7.09787,-3.62398 -0.384945,-0.227472 -0.770889,-0.453347 -1.15793,-0.677024 -0.712873,-0.411906 -1.42235,-0.828706 -2.12913,-1.2508 -1.47757,-0.879732 -2.96762,-1.7378 -4.45738,-2.59666 -0.29138,-0.168058 -0.58266,-0.336116 -0.882828,-0.509266 -1.67389,-0.96431 -3.35047,-1.92363 -5.02935,-2.87905 -3.84955,-2.19114 -7.67174,-4.42322 -11.4748,-6.69435 -0.672431,-0.400023 -1.34676,-0.796252 -2.02268,-1.19028 -2.97192,-1.7368 -4.84222,-3.06259 -6.13546,-6.39558 -0.227472,-1.12068 -0.299269,-2.18705 -0.304861,-3.3292 -0.00229669,-0.3466 -0.00459338,-0.693301 -0.00689007,-1.05039 -0.00119827,-0.380951 -0.00229669,-0.762002 -0.00339511,-1.14295 -0.00209698,-0.403818 -0.00429381,-0.807536 -0.0065905,-1.21125 -0.00689007,-1.32279 -0.0109842,-2.64569 -0.0147787,-3.96848 -0.00139799,-0.456742 -0.00279597,-0.913583 -0.00419396,-1.37032 -0.0056918,-1.90116 -0.0106846,-3.80232 -0.0136803,-5.70338 -0.00429381,-2.71728 -0.0129813,-5.43457 -0.0280596,-8.15175 -0.0102852,-1.91464 -0.0153778,-3.82928 -0.0167758,-5.74402 -0.000998561,-1.14155 -0.0040941,-2.28301 -0.0127816,-3.42456 -0.00798849,-1.07525 -0.00958618,-2.1503 -0.00649064,-3.22555 9.98561e-005,-0.392335 -0.00209698,-0.784669 -0.00679021,-1.177 -0.0332521,-2.96033 0.398026,-5.91418 2.54194,-8.14326 2.76012,-2.32625 6.18528,-3.97118 9.30179,-5.7557 1.64872,-0.944039 3.28976,-1.90056 4.9291,-2.86078 2.44857,-1.43234 4.90872,-2.8436 7.37347,-4.24808 2.17826,-1.24151 4.34953,-2.4944 6.51361,-3.76058 1.01813,-0.594743 2.03636,-1.18919 3.0549,-1.78333 0.389439,-0.227372 0.389439,-0.227372 0.786766,-0.459238 0.760604,-0.443061 1.52241,-0.883926 2.28461,-1.32419 0.226973,-0.132509 0.453946,-0.265118 0.687709,-0.401721 1.72012,-0.989574 3.13908,-1.58991 5.15777,-1.61278z"/>
   <path id="_404088280" class="fil1 str0" d="M23.8528 44.4208c12.9909,0 25.9818,0 39.3663,0 0,2.7027 0,5.40551 0,8.1902 -0.466827,0.466827 -1.13606,0.297571 -1.76865,0.297771 -0.490193,0.00109842 -0.490193,0.00109842 -0.990273,0.00229669 -0.365373,-0.00049928 -0.730847,-0.00109842 -1.09632,-0.0015977 -0.382249,0.000299568 -0.764498,0.000798849 -1.14675,0.00139799 -1.0409,0.00119827 -2.0819,0.000698993 -3.1228,-9.98561e-005 -1.08703,-0.000698993 -2.17397,-9.98561e-005 -3.261,0.000299568 -1.82567,0.00049928 -3.65144,-9.98561e-005 -5.47721,-0.00139799 -2.11375,-0.00139799 -4.22761,-0.000998561 -6.34146,0.00049928 -1.81159,0.00119827 -3.62318,0.00139799 -5.43477,0.000698993 -1.08344,-0.000399424 -2.16688,-0.00049928 -3.25032,0.000399424 -1.01833,0.000698993 -2.03666,0.000199712 -3.055,-0.00129813 -0.37486,-0.000399424 -0.74962,-0.000299568 -1.12448,0.000299568 -0.509466,0.000698993 -1.01903,-0.000299568 -1.5286,-0.00149784 -0.285788,-9.98561e-005 -0.571576,-0.000199712 -0.866052,-0.000299568 -0.63838,-0.0332521 -0.63838,-0.0332521 -0.902599,-0.297471 0,-2.7027 0,-5.40551 0,-8.1902z"/>
   <path id="_404088568" class="fil2 str0" d="M23.8528 56.0456c12.9909,0 25.9818,0 39.3663,0 0,2.7028 0,5.40561 0,8.1903 -12.9909,0 -25.9818,0 -39.3663,0 0,-2.7028 0,-5.40561 0,-8.1903z"/>
   <path id="_404088736" class="fil3 str0" d="M23.8528 32.7958c12.9909,0 25.9818,0 39.3663,0 0,2.7028 0,5.40561 0,8.1903 -12.9909,0 -25.9818,0 -39.3663,0 0,-2.7028 0,-5.40561 0,-8.1903z"/>
   <path id="_404089240" class="fil4 str0" d="M64.5401 26.9834c2.61453,-0.130811 5.17025,0.206303 7.23357,1.93501 1.60998,1.6644 1.8008,3.51653 1.79881,5.74332 0.000199712,0.200112 0.000399424,0.400223 0.00049928,0.606326 -0.0105847,1.14245 -0.0942641,2.21551 -0.314247,3.34019 -0.255831,1.3198 -0.323334,2.58997 -0.330224,3.93004 -0.00239655,0.188728 -0.00479309,0.377356 -0.00718964,0.571776 0.00649064,1.14914 0.143094,2.10347 0.601633,3.16005 1.03481,0.639179 2.24556,0.671732 3.43465,0.792658 0,0.959018 0,1.91814 0,2.90621 -0.365074,0.0599136 -0.730247,0.119927 -1.10641,0.181638 -1.20566,0.269611 -1.83805,0.654057 -2.59246,1.6678 -0.571976,2.07301 -0.456442,4.59977 0,6.68766 0.540721,2.61723 0.779377,5.90609 -0.426186,8.35945 -1.0378,1.53189 -2.39475,2.55931 -4.17458,3.07137 -1.36553,0.222779 -2.73985,0.168956 -4.11786,0.111439 0,-0.959018 0,-1.91804 0,-2.90621 0.403219,-0.0217686 0.806438,-0.0435372 1.22194,-0.0660049 1.26657,-0.134406 2.05694,-0.352891 3.00527,-1.25499 1.18579,-1.95229 0.914582,-4.14103 0.528438,-6.29133 -0.261024,-1.58871 -0.340909,-3.14886 -0.363276,-4.75565 -0.00679021,-0.233364 -0.0136803,-0.466827 -0.0206702,-0.707281 -0.00479309,-1.58601 0.278698,-2.7747 1.1765,-4.09789 0.747223,-0.72845 1.33747,-1.16692 2.37787,-1.321 -0.234362,-0.147088 -0.468625,-0.294276 -0.710077,-0.445857 -1.42355,-0.959118 -2.29419,-1.82617 -2.72457,-3.51723 -0.0738935,-0.848876 -0.0749919,-1.69126 -0.0661047,-2.54293 0.00109842,-0.234961 0.00209698,-0.469923 0.00309554,-0.711974 0.0201709,-1.53519 0.174548,-2.9856 0.470622,-4.49362 0.334019,-1.95279 0.350595,-3.73402 -0.671832,-5.46153 -1.13436,-1.31171 -2.58837,-1.34826 -4.22721,-1.58522 0,-0.959118 0,-1.91814 0,-2.90621z"/>
   <path id="_404089480" class="fil4 str0" d="M21.0292 26.9668c0.42349,0.00359482 0.42349,0.00359482 0.855567,0.00728949 0.213492,0.00299568 0.427084,0.00609122 0.647067,0.00928661 0,0.959018 0,1.91804 0,2.90621 -0.539423,0.0326529 -0.539423,0.0326529 -1.08983,0.0660049 -1.55146,0.177844 -2.45556,0.73544 -3.43974,1.95988 -0.586255,1.05268 -0.615313,1.69715 -0.589351,2.89483 0.00339511,0.186531 0.00679021,0.372962 0.010385,0.565185 0.0317542,1.09422 0.147388,2.13922 0.352891,3.21626 0.452248,2.39565 0.900602,5.65665 -0.455144,7.80845 -0.785967,0.927763 -1.70504,1.57433 -2.71529,2.24776 0.22887,0.0926664 0.45774,0.185233 0.6936,0.280695 1.29513,0.743528 2.26394,1.72262 2.74105,3.15395 0.0607125,0.829904 0.0501277,1.66141 0.0495286,2.49341 0.000199712,0.238956 0.000399424,0.477811 0.00049928,0.724056 -0.0120826,1.54108 -0.161168,2.9831 -0.456642,4.49702 -0.384646,2.33703 -0.357385,4.27354 0.935052,6.28824 0.718864,0.718864 1.28075,0.688607 2.27872,0.82561 0.471021,0.0664043 0.471021,0.0664043 0.951529,0.134207 0.241851,0.0319539 0.483603,0.0640077 0.732744,0.0969602 0,0.959118 0,1.91814 0,2.90621 -4.82604,0.120526 -4.82604,0.120526 -6.78672,-1.45311 -1.67728,-1.60579 -2.22379,-3.09903 -2.2921,-5.41739 -0.0108843,-1.99193 0.210996,-3.91526 0.503574,-5.88552 0.128914,-1.04819 0.189826,-2.07401 0.203307,-3.12909 0.00449352,-0.316743 0.00888719,-0.633487 0.0134806,-0.959817 -0.105448,-0.941243 -0.31914,-1.42824 -0.888619,-2.17766 -1.03581,-0.644471 -1.96407,-0.913184 -3.17043,-1.05678 0,-0.959018 0,-1.91814 0,-2.90621 0.316044,-0.0163764 0.632089,-0.0327528 0.95772,-0.0495286 1.27426,-0.156175 1.85233,-0.625299 2.74115,-1.53569 0.3468,-1.0405 0.314547,-2.03617 0.313748,-3.1209 9.98561e-005,-0.225375 0.000299568,-0.45075 0.00049928,-0.682916 -0.0135804,-1.64014 -0.195918,-3.20538 -0.456742,-4.82505 -0.345802,-2.50599 -0.452648,-5.01347 0.935052,-7.22329 1.7363,-1.98015 3.84466,-2.68693 6.42344,-2.65857z"/>
  </g>
 </g>
</svg>
